<svg xmlns="http://www.w3.org/2000/svg" width="75" height="75" viewBox="0 0 75 75" fill="none"><circle cx="37.5" cy="37.5" r="37.5" fill="#85AEF5"></circle><path d="M22.2377 21.9371H31.0764L33.9249 29.0592L29.348 32.1104C29.0785 32.2903 28.8575 32.5338 28.7047 32.8195C28.5519 33.1052 28.472 33.4242 28.472 33.7483C28.4779 33.9333 28.472 33.7502 28.472 33.7502V33.7916C28.473 33.8796 28.477 33.9676 28.4838 34.0553C28.4943 34.2181 28.5173 34.4346 28.5527 34.705C28.6295 35.2365 28.7771 35.9688 29.0646 36.831C29.6433 38.5633 30.7772 40.8054 32.9859 43.0141C35.1946 45.2228 37.4367 46.3567 39.1671 46.9354C40.0312 47.2229 40.7616 47.3685 41.297 47.4473C41.599 47.4912 41.9034 47.5174 42.2084 47.526L42.234 47.528H42.2498C42.2498 47.528 42.4703 47.5162 42.2517 47.528C42.6172 47.5278 42.9754 47.4258 43.2863 47.2336C43.5971 47.0413 43.8482 46.7663 44.0116 46.4394L45.3305 43.8015L54.0629 45.2583V53.7623C49.9074 54.3627 38.6828 54.9552 29.8638 46.1362C21.0448 37.3172 21.6353 26.0907 22.2377 21.9371ZM32.5528 34.705L36.1099 32.3348C36.8614 31.8336 37.4177 31.0892 37.6854 30.2265C37.9531 29.3638 37.9161 28.4352 37.5804 27.5966L34.732 20.4744C34.4397 19.7439 33.9352 19.1178 33.2836 18.6767C32.632 18.2357 31.8632 17.9999 31.0764 18H22.1353C20.3459 18 18.6628 19.2421 18.3695 21.1831C17.7002 25.5966 16.7927 38.6322 27.0803 48.9197C37.3678 59.2073 50.4034 58.2978 54.8169 57.6305C56.7579 57.3352 58 55.6541 58 53.8647V45.2583C58.0001 44.3263 57.6696 43.4245 57.0673 42.7133C56.465 42.0021 55.6299 41.5277 54.7106 41.3743L45.9782 39.9196C45.1476 39.781 44.2945 39.9123 43.5441 40.2942C42.7937 40.6761 42.1855 41.2886 41.8088 42.0417L41.1277 43.4059C40.887 43.346 40.6486 43.2771 40.4131 43.1992C39.1926 42.7937 37.4977 41.959 35.7694 40.2306C34.041 38.5023 33.2063 36.8074 32.8008 35.5849C32.7052 35.2955 32.6231 35.0019 32.5548 34.705H32.5528Z" fill="#091033"></path></svg>